<svg xmlns="http://www.w3.org/2000/svg" viewBox="0 0 64 64">
  <rect width="64" height="64" fill="#171327"/>
  <rect x="2" y="2" width="60" height="60" fill="none" stroke="#9e87ff" stroke-width="2"/>
  <ellipse cx="32" cy="58" rx="18" ry="4" fill="#2f2749"/>
  <path d="M19 44c0-12 8-20 13-20s13 8 13 20c-1 5-5 9-13 9s-12-4-13-9z" fill="#8d74ef"/>
  <path d="M22 29l3-9 5 5zM42 29l-3-9-5 5z" fill="#7f60e3"/>
  <ellipse cx="27" cy="35" rx="3.5" ry="2.5" fill="#ffffff"/>
  <ellipse cx="37" cy="35" rx="3.5" ry="2.5" fill="#ffffff"/>
  <circle cx="27" cy="35" r="1.2" fill="#ff4a74"/>
  <circle cx="37" cy="35" r="1.2" fill="#ff4a74"/>
  <path d="M24 43c4 6 12 6 16 0" stroke="#f5f2ff" stroke-width="2" fill="none"/>
</svg>
